PathFileType	4	(X/Y/Z)	/Users/itak/Documents/Research/Walk-IL/dataset/trc/00360_00011.trc
DataRate	CameraRate	NumFrames	NumMarkers	Units	OrigDataRate	OrigDataStartFrame	OrigNumFrames
100.000000	100.000000	4	56	mm	100.000000	0	409
Frame#	Time	RPSI			LPSI			L3			STRN			T10			C7			CLAV			RBAK			LBAK			LSHO			LUPA			LAEL			LAOL			LWTS			LWPS			LFRA			LIFD			LHPS			LHTS			RSHO			RUPA			RAEL			RAOL			RWTS			RWPS			RFRA			RIFD			RHTS			RHPS			RBHD			LFHD			RFHD			LBHD			LHIP			RHIP			RASI			LASI			LKNE			LTHI			LANK			LTIP			LTOE			LMT1			LMT5			LHEE			RKNE			RTHI			RTIP			RTOE			RMT1			RMT5			RANK			RHEE			*53			*54			*55			
		X1	Y1	Z1	X2	Y2	Z2	X3	Y3	Z3	X4	Y4	Z4	X5	Y5	Z5	X6	Y6	Z6	X7	Y7	Z7	X8	Y8	Z8	X9	Y9	Z9	X10	Y10	Z10	X11	Y11	Z11	X12	Y12	Z12	X13	Y13	Z13	X14	Y14	Z14	X15	Y15	Z15	X16	Y16	Z16	X17	Y17	Z17	X18	Y18	Z18	X19	Y19	Z19	X20	Y20	Z20	X21	Y21	Z21	X22	Y22	Z22	X23	Y23	Z23	X24	Y24	Z24	X25	Y25	Z25	X26	Y26	Z26	X27	Y27	Z27	X28	Y28	Z28	X29	Y29	Z29	X30	Y30	Z30	X31	Y31	Z31	X32	Y32	Z32	X33	Y33	Z33	X34	Y34	Z34	X35	Y35	Z35	X36	Y36	Z36	X37	Y37	Z37	X38	Y38	Z38	X39	Y39	Z39	X40	Y40	Z40	X41	Y41	Z41	X42	Y42	Z42	X43	Y43	Z43	X44	Y44	Z44	X45	Y45	Z45	X46	Y46	Z46	X47	Y47	Z47	X48	Y48	Z48	X49	Y49	Z49	X50	Y50	Z50	X51	Y51	Z51	X52	Y52	Z52	X53	Y53	Z53	X54	Y54	Z54	X55	Y55	Z55	X56	Y56	Z56	

1	0	-1043.237915039062	942.815673828125	866.1324462890625	-1031.875	937.6652221679688	738.5830688476562	-1037.867919921875	1003.038452148438	814.790283203125	-788.3648071289062	1158.429443359375	802.45458984375	-1035.10400390625	1120.726196289062	821.2921752929688	-964.5274047851562	1360.909912109375	800.6641235351562	-817.4306030273438	1287.984252929688	794.453125	-1024.244262695312	1231.421997070312	877.9978637695312	-989.41015625	1322.21044921875	703.1431884765625	-910.5650634765625	1325.617065429688	635.7945556640625	-977.54931640625	1218.459838867188	587.3296508789062	-1049.65673828125	1028.686645507812	605.5160522460938	-1084.901123046875	1042.63623046875	681.2175903320312	-1066.506225585938	765.5299072265625	652.3674926757812	-1123.167236328125	778.3978881835938	612.2698364257812	-1085.1259765625	929.43603515625	607.9146118164062	-1152.242919921875	628.1356201171875	681.7529296875	-1161.14208984375	722.60400390625	631.23876953125	-1106.16748046875	694.527587890625	649.87548828125	-896.2310791015625	1347.046875	959.4854736328125	-901.9086303710938	1284.195678710938	1026.795288085938	-854.4782104492188	1019.04345703125	1076.839233398438	-907.62060546875	999.7371826171875	999.9522094726562	-715.8170776367188	811.6918334960938	1010.794921875	-735.1207275390625	792.8749389648438	1082.312866210938	-817.4512329101562	956.1515502929688	1082.860595703125	-671.6068725585938	644.4351196289062	1014.502502441406	-668.2584228515625	717.4337768554688	1019.333190917969	-706.6804809570312	712.6038818359375	1077.083374023438	-892.6332397460938	1561.148681640625	871.9100341796875	-749.781005859375	1558.405151367188	720.703369140625	-738.1199340820312	1562.517578125	821.1311645507812	-935.8959350585938	1552.750244140625	734.0184936523438	-929.2913818359375	883.75927734375	645.3472290039062	-987.9849243164062	879.4383544921875	983.938720703125	-872.9042358398438	895.9225463867188	962.4813232421875	-823.8536376953125	900.916748046875	729.312255859375	-711.0834350585938	467.0917663574219	682.6581420898438	-770.4014892578125	590.34130859375	655.0322875976562	-667.90380859375	44.25772476196289	719.6104125976562	-683.767822265625	244.5924530029297	687.7246704101562	-463.1359252929688	92.05579376220703	735.5150756835938	-514.5641479492188	60.49687957763672	789.0714111328125	-551.3970336914062	66.73530578613281	681.6767578125	-687.080322265625	36.80313491821289	791.9525146484375	-1087.835693359375	446.9781188964844	981.8558349609375	-970.2006225585938	676.3656616210938	1002.270446777344	-1136.252685546875	333.0274658203125	968.3958129882812	-1161.949096679688	47.11617660522461	907.9647827148438	-1208.32275390625	50.99519729614258	862.8753662109375	-1243.850341796875	47.77268218994141	951.7062377929688	-1339.960205078125	97.83097839355469	950.3352661132812	-1364.0791015625	102.0756149291992	926.89990234375	nan	nan	nan	nan	nan	nan	nan	nan	nan	
2	0.01	-1037.84716796875	942.8895874023438	865.2879028320312	-1026.47900390625	937.9386596679688	737.6635131835938	-1032.510620117188	1002.918151855469	813.9273681640625	-783.509521484375	1158.9423828125	801.1754760742188	-1030.19140625	1120.718505859375	820.0665283203125	-960.0520629882812	1361.083374023438	799.0327758789062	-812.721923828125	1288.443969726562	792.9827270507812	-1019.383422851562	1231.437377929688	876.5182495117188	-984.8283081054688	1322.193237304688	701.5548706054688	-905.8557739257812	1325.743896484375	634.2474975585938	-972.3831176757812	1218.247314453125	585.7520141601562	-1043.82666015625	1028.22265625	603.640380859375	-1079.321899414062	1042.02392578125	679.2640380859375	-1059.533935546875	764.9934692382812	650.550537109375	-1116.109619140625	777.61572265625	610.2784423828125	-1078.882690429688	928.8045654296875	606.0191650390625	-1144.34912109375	627.077880859375	679.3845825195312	-1153.744140625	721.5735473632812	629.0986328125	-1098.607299804688	693.8618774414062	647.7860107421875	-891.7657470703125	1347.425048828125	957.9482421875	-897.3519897460938	1284.546630859375	1025.220092773438	-850.0484008789062	1019.354614257812	1075.19091796875	-903.1400146484375	1000.1953125	998.2561645507812	-711.1875610351562	812.202392578125	1009.081665039062	-730.6268310546875	793.23046875	1080.482299804688	-813.079345703125	956.470947265625	1081.20458984375	-666.818359375	644.9733276367188	1012.461669921875	-663.570068359375	718.0770263671875	1017.458251953125	-702.0946044921875	712.9873046875	1075.134033203125	-888.3221435546875	1561.52734375	870.606689453125	-745.3143920898438	1558.847290039062	719.5800170898438	-733.7517700195312	1562.819580078125	820.0122680664062	-931.4560546875	1553.345825195312	732.7027587890625	-923.9655151367188	884.0645141601562	644.4369506835938	-982.506103515625	879.5203857421875	983.1532592773438	-867.4288940429688	896.0508422851562	961.5856323242188	-818.588134765625	901.1972045898438	728.4197998046875	-706.2981567382812	467.2867736816406	682.5550537109375	-765.325927734375	590.6179809570312	654.9403076171875	-667.164794921875	44.68257141113281	719.9647827148438	-680.6490478515625	244.3869018554688	688.066162109375	-461.6773986816406	89.41472625732422	736.2967529296875	-513.6561889648438	58.2205810546875	789.5665893554688	-550.390625	65.77067565917969	682.3646240234375	-686.4402465820312	37.05821228027344	792.25244140625	-1083.117797851562	447.562255859375	981.4883422851562	-964.8457641601562	676.5645751953125	1001.672668457031	-1132.436889648438	334.0188598632812	968.4825439453125	-1161.78076171875	47.15743637084961	908.1212768554688	-1207.736328125	51.26320648193359	863.1178588867188	-1242.181640625	48.23226928710938	949.7230834960938	-1338.0517578125	99.98377227783203	950.5601196289062	-1363.773193359375	108.0750503540039	924.6426391601562	nan	nan	nan	nan	nan	nan	nan	nan	nan	
3	0.02	-1030.64306640625	943.0645751953125	864.1963500976562	-1019.314575195312	938.3851928710938	736.4740600585938	-1025.367797851562	1002.81494140625	812.8131713867188	-777.0238037109375	1159.6865234375	799.4456176757812	-1023.627075195312	1120.768920898438	818.4409790039062	-954.089599609375	1361.373657226562	796.8768310546875	-806.4575805664062	1289.115966796875	791.0081176757812	-1012.890991210938	1231.518310546875	874.5595703125	-978.7179565429688	1322.235961914062	699.4419555664062	-899.59228515625	1325.9921875	632.184326171875	-965.474365234375	1218.03466796875	583.62841796875	-1035.967529296875	1027.653686523438	601.1054077148438	-1071.807983398438	1041.23486328125	676.61865234375	-1050.078369140625	764.34814453125	648.0462646484375	-1106.551391601562	776.6168212890625	607.5579223632812	-1070.441162109375	928.012939453125	603.4375610351562	-1133.638793945312	625.7180786132812	676.1785278320312	-1143.720581054688	720.236572265625	626.17236328125	-1088.367065429688	693.0263061523438	644.9321899414062	-885.7864990234375	1347.990600585938	955.8941040039062	-891.2423706054688	1285.076416015625	1023.116760253906	-844.1766967773438	1019.831359863281	1072.985473632812	-897.1743774414062	1000.873596191406	995.9725341796875	-705.0827026367188	812.9273681640625	1006.777160644531	-724.7024536132812	793.7363891601562	1078.034057617188	-807.2869262695312	956.9500122070312	1078.9892578125	-660.5315551757812	645.718994140625	1009.722778320312	-657.3902587890625	718.9625244140625	1014.944763183594	-696.0528564453125	713.5385131835938	1072.516967773438	-882.5779418945312	1562.097900390625	868.8563842773438	-739.3790893554688	1559.476684570312	718.0491333007812	-727.9384155273438	1563.280395507812	818.4898681640625	-925.54541015625	1554.182739257812	730.93115234375	-916.9297485351562	884.5559692382812	643.219482421875	-975.1649169921875	879.7101440429688	982.1340942382812	-860.1192016601562	896.2889404296875	960.3748168945312	-811.5811157226562	901.645751953125	727.188232421875	-699.9544677734375	467.5735473632812	682.3967895507812	-758.624267578125	591.0107421875	654.8175048828125	-666.1929931640625	45.22822570800781	720.3833618164062	-676.4974975585938	244.1652221679688	688.4426879882812	-459.8187561035156	86.02963256835938	737.3015747070312	-512.5283813476562	55.3470573425293	790.211669921875	-549.0729370117188	64.52396392822266	683.23486328125	-685.6077270507812	37.41457366943359	792.5977172851562	-1076.525390625	448.310302734375	980.9854736328125	-957.5493774414062	676.8413696289062	1000.842468261719	-1127.033203125	335.308837890625	968.6239624023438	-1161.544311523438	47.17972946166992	908.3338012695312	-1206.875366210938	51.56897735595703	863.4520874023438	-1240.381713867188	48.84866333007812	948.296875	-1335.271728515625	102.9491577148438	950.8876953125	-1362.78564453125	115.7353744506836	921.9696044921875	nan	nan	nan	nan	nan	nan	nan	nan	nan	
4	0.03	-1021.747436523438	943.378173828125	862.8939208984375	-1010.526672363281	939.0376586914062	735.0537719726562	-1016.570190429688	1002.763000488281	811.4866333007812	-769.0155029296875	1160.681884765625	797.2802734375	-1015.519653320312	1120.9091796875	816.4490966796875	-946.74853515625	1361.805786132812	794.2452392578125	-798.7560424804688	1290.019897460938	788.5575561523438	-1004.878479003906	1231.696044921875	872.165771484375	-971.187744140625	1322.372314453125	696.845947265625	-891.8948974609375	1326.400634765625	629.6434326171875	-956.9345092773438	1217.865966796875	580.9861450195312	-1026.169311523438	1027.019775390625	597.9367065429688	-1062.450439453125	1040.300537109375	673.3037719726562	-1038.21484375	763.644775390625	644.8521728515625	-1094.5732421875	775.4444580078125	604.1165771484375	-1059.882568359375	927.1043701171875	600.1846923828125	-1120.195678710938	624.1095581054688	672.1624755859375	-1131.155151367188	718.63916015625	622.4684448242188	-1075.535888671875	692.06640625	641.3239135742188	-878.38671875	1348.765625	953.357421875	-883.67041015625	1285.808715820312	1020.522338867188	-836.9852294921875	1020.497619628906	1070.25830078125	-889.833984375	1001.797180175781	993.1315307617188	-697.6448974609375	813.8770141601562	1003.911560058594	-717.4859619140625	794.40185546875	1075.007568359375	-800.1953735351562	957.6087036132812	1076.250854492188	-652.9086303710938	646.6737670898438	1006.324829101562	-649.8665161132812	720.0883178710938	1011.82958984375	-688.6997680664062	714.2679443359375	1069.268432617188	-875.50341796875	1562.884399414062	866.68310546875	-732.0911254882812	1560.302490234375	716.1196899414062	-720.787841796875	1563.92236328125	816.5734252929688	-918.2739868164062	1555.267700195312	728.7268676757812	-908.34423828125	885.2677001953125	641.7127685546875	-966.0740356445312	880.0496826171875	980.9109497070312	-851.1016235351562	896.6710815429688	958.8587036132812	-802.96484375	902.2944946289062	725.6162719726562	-692.19482421875	467.9541015625	682.1763916015625	-750.4523315429688	591.52490234375	654.6591796875	-665.0194702148438	45.87121200561523	720.8314208984375	-671.4071655273438	243.9522094726562	688.8090209960938	-457.6468811035156	82.03903198242188	738.4857177734375	-511.2468872070312	52.01910018920898	790.9835205078125	-547.4889526367188	63.04105377197266	684.2416381835938	-684.6135864257812	37.86929321289062	792.9553833007812	-1067.998046875	449.1864318847656	980.3517456054688	-948.3557739257812	677.1971435546875	999.7772827148438	-1119.953735351562	336.8516235351562	968.8318481445312	-1161.23095703125	47.15668487548828	908.600830078125	-1205.705932617188	51.88701629638672	863.876708984375	-1238.65673828125	49.63028717041016	947.9889526367188	-1331.525390625	106.7354278564453	951.3331298828125	-1360.800537109375	124.7498168945312	919.1116333007812	nan	nan	nan	nan	nan	nan	nan	nan	nan	
